<?xml version="1.0" standalone="no"?><!DOCTYPE svg PUBLIC "-//W3C//DTD SVG 1.1//EN" "http://www.w3.org/Graphics/SVG/1.1/DTD/svg11.dtd"><svg t="1597673718962" class="icon" viewBox="0 0 1024 1024" version="1.1" xmlns="http://www.w3.org/2000/svg" p-id="4591" xmlns:xlink="http://www.w3.org/1999/xlink" width="128" height="128"><defs><style type="text/css"></style></defs><path d="M753.066667 343.466667C718.933333 243.2 625.066667 170.666667 512 170.666667c-113.066667 0-206.933333 72.533333-241.066667 172.8C142.933333 356.266667 42.666667 465.066667 42.666667 597.333333c0 140.8 115.2 256 256 256h426.666666c140.8 0 256-115.2 256-256 0-132.266667-100.266667-241.066667-228.266666-253.866666z m-251.733334 81.066666c0 4.266667 2.133333 8.533333 4.266667 12.8l-140.8 149.333334c-2.133333-2.133333-6.4-2.133333-10.666667-2.133334l-53.333333-209.066666 200.533333 49.066666zM725.333333 810.666667H298.666667C181.333333 810.666667 85.333333 714.666667 85.333333 597.333333c0-108.8 81.066667-200.533333 189.866667-211.2 2.133333 0 6.4-2.133333 8.533333-2.133333l51.2 202.666667c-8.533333 6.4-14.933333 14.933333-14.933333 25.6 0 17.066667 14.933333 32 32 32s32-14.933333 32-32c0-4.266667-2.133333-10.666667-4.266667-14.933334l140.8-149.333333c4.266667 2.133333 8.533333 2.133333 12.8 2.133333 17.066667 0 32-14.933333 32-32s-14.933333-32-32-32c-10.666667 0-21.333333 6.4-25.6 14.933334l-194.133333-51.2c32-83.2 110.933333-138.666667 200.533333-138.666667 91.733333 0 170.666667 57.6 200.533334 142.933333 6.4 14.933333 19.2 25.6 36.266666 27.733334 108.8 12.8 189.866667 102.4 189.866667 211.2C938.666667 714.666667 842.666667 810.666667 725.333333 810.666667z" p-id="4592"></path></svg>