<?xml version="1.0" standalone="no"?><!DOCTYPE svg PUBLIC "-//W3C//DTD SVG 1.1//EN" "http://www.w3.org/Graphics/SVG/1.1/DTD/svg11.dtd"><svg t="1597570059931" class="icon" viewBox="0 0 1024 1024" version="1.1" xmlns="http://www.w3.org/2000/svg" p-id="2220" width="128" height="128" xmlns:xlink="http://www.w3.org/1999/xlink"><defs><style type="text/css"></style></defs><path d="M506.88-0.046548m72.407734 72.407734l362.038672 362.038672q72.407734 72.407734 0 144.815469l-362.038672 362.038672q-72.407734 72.407734-144.815468 0l-362.038672-362.038672q-72.407734-72.407734 0-144.815469l362.038672-362.038672q72.407734-72.407734 144.815468 0Z" fill="#F5A623" p-id="2221"></path><path d="M693.9136 393.8816l209.8176 223.1808L645.0176 870.4 460.8 716.8l210.2272-179.2z" fill="#ED9300" p-id="2222"></path><path d="M730.624 577.7408c-1.28-8.3456-7.4752-14.5408-14.7456-14.5408h-409.088c-7.3216 0-13.2608 6.144-14.848 14.5408l-10.0864 77.6704c-1.536 9.2672 3.3792 18.5856 11.1616 20.736 78.848 23.2448 135.3728 34.9696 218.624 34.9696 83.2 0 138.9056-11.776 217.7024-34.9696 8.0384-2.1504 13.0048-11.1616 11.4176-20.736l-10.0864-77.6704zM646.656 419.84c0 9.8816-6.7072 17.92-15.0016 17.92-8.2944 0-15.0528-8.0384-15.0528-17.92V324.096c0-9.9328-6.7072-17.92-15.0016-17.92h-23.8592v89.4464c0 9.8816-6.7584 17.92-15.0528 17.92-8.2944 0-15.0528-8.0384-15.0528-17.92V282.368H475.8528v113.3056c0 9.8816-6.7584 17.92-15.0528 17.92-8.2944 0-15.0016-8.0384-15.0016-17.92V306.176H421.888c-8.2944 0-15.0528 8.0384-15.0528 17.9712v95.6416c0 9.9328-6.7072 17.92-15.0016 17.92-8.2944 0-15.0528-7.9872-15.0528-17.92V352.3072C332.8 381.44 306.8416 450.304 306.8416 507.904v29.696h409.2928v-29.696c0.512-57.6-25.3952-126.464-69.4272-155.5968V419.84z" fill="#FFFFFF" p-id="2223"></path></svg>