<?xml version="1.0" standalone="no"?><!DOCTYPE svg PUBLIC "-//W3C//DTD SVG 1.1//EN" "http://www.w3.org/Graphics/SVG/1.1/DTD/svg11.dtd"><svg t="1606706217090" class="icon" viewBox="0 0 1024 1024" version="1.1" xmlns="http://www.w3.org/2000/svg" p-id="1126" xmlns:xlink="http://www.w3.org/1999/xlink" width="128" height="128"><defs><style type="text/css"></style></defs><path d="M246.6048 688.2304a51.3536 51.3536 0 0 0-1.28 72.3968l17.792 18.432a51.3536 51.3536 0 0 0 72.3968 1.2288L814.336 317.952a51.3536 51.3536 0 0 0 1.28-72.4224l-17.792-18.4064a51.3536 51.3536 0 0 0-72.3968-1.28L246.6048 688.256z m-17.7664-18.432L707.584 207.4624c31.3088-30.2592 78.3616-29.44 108.5952 1.8688l17.792 18.432c30.208 31.3088 29.4144 78.336-1.8944 108.5952L353.28 798.6944c-31.3088 30.2592-78.3616 29.44-108.5952-1.8688l-17.792-18.432c-30.208-31.2832-29.3888-78.336 1.92-108.5952z" fill="#222222" p-id="1127"></path><path d="M246.6048 688.2304a51.3536 51.3536 0 0 0-1.28 72.3968l17.792 18.432a51.3536 51.3536 0 0 0 72.3968 1.2288L814.336 317.952a51.3536 51.3536 0 0 0 1.28-72.4224l-17.792-18.4064a51.3536 51.3536 0 0 0-72.3968-1.28L246.6048 688.256z" fill="#FFFFFF" p-id="1128"></path><path d="M264.3968 706.6368c-11.0592 10.6752-11.3152 25.1392-0.64 36.1984l17.792 18.432c10.6752 11.0336 25.1392 11.264 36.1984 0.6144 11.0336-10.6752 11.2896-25.1392 0.6144-36.1984l-17.7664-18.432c-10.6752-11.008-25.1648-11.264-36.1984-0.6144z" fill="#FF5B5B" p-id="1129"></path><path d="M614.912 332.544l88.9088 92.0832 110.4896-106.7008a51.3536 51.3536 0 0 0 1.28-72.3968l-17.792-18.4064a51.3536 51.3536 0 0 0-72.3968-1.28l-110.4896 106.7264z m-36.1984-0.6144l128.896-124.4928c31.3088-30.208 78.3616-29.4144 108.5952 1.8944l17.792 18.432c30.208 31.3088 29.4144 78.336-1.8944 108.5952L703.2064 460.8l-124.4928-128.896z" fill="#222222" p-id="1130"></path><path d="M614.912 332.544l88.9088 92.0832 110.4896-106.7008a51.3536 51.3536 0 0 0 1.28-72.3968l-17.792-18.4064a51.3536 51.3536 0 0 0-72.3968-1.28l-110.4896 106.7264z" fill="#FFAA5C" p-id="1131"></path><path d="M215.04 350.72c-5.12-5.12-12.8-5.12-17.92 0s-5.12 12.8 0 17.92c20.48 20.48 28.16 43.52 23.04 66.56-2.56 12.8-10.24 23.04-20.48 35.84l-15.36 15.36c-7.68 7.68-12.8 15.36-12.8 23.04-5.12 20.48 5.12 43.52 28.16 66.56 5.12 5.12 12.8 5.12 17.92 0 5.12-5.12 5.12-12.8 0-17.92-17.92-17.92-25.6-33.28-23.04-43.52 0-2.56 2.56-7.68 7.68-10.24l15.36-15.36c15.36-15.36 25.6-30.72 28.16-48.64 5.12-33.28-5.12-61.44-30.72-89.6z" fill="#222222" p-id="1132"></path></svg>