<?xml version="1.0" standalone="no"?><!DOCTYPE svg PUBLIC "-//W3C//DTD SVG 1.1//EN" "http://www.w3.org/Graphics/SVG/1.1/DTD/svg11.dtd"><svg t="1597907836769" class="icon" viewBox="0 0 1024 1024" version="1.1" xmlns="http://www.w3.org/2000/svg" p-id="1932" xmlns:xlink="http://www.w3.org/1999/xlink" width="128" height="128"><defs><style type="text/css"></style></defs><path d="M853.333333 1024 170.666667 1024c-93.866667 0-170.666667-76.8-170.666667-170.666667L0 170.666667c0-93.866667 76.8-170.666667 170.666667-170.666667l682.666667 0c93.866667 0 170.666667 76.8 170.666667 170.666667l0 682.666667C1024 947.2 947.2 1024 853.333333 1024zM170.666667 85.333333C123.733333 85.333333 85.333333 123.733333 85.333333 170.666667l0 682.666667c0 46.933333 38.4 85.333333 85.333333 85.333333l682.666667 0c46.933333 0 85.333333-38.4 85.333333-85.333333L938.666667 170.666667c0-46.933333-38.4-85.333333-85.333333-85.333333L170.666667 85.333333z" p-id="1933"></path><path d="M384 725.333333c-8.533333 0-12.8 0-21.333333-4.266667C349.866667 712.533333 341.333333 699.733333 341.333333 682.666667L341.333333 341.333333c0-17.066667 8.533333-29.866667 21.333333-38.4 12.8-8.533333 29.866667-8.533333 42.666667 0l298.666667 170.666667c12.8 8.533333 21.333333 21.333333 21.333333 38.4s-8.533333 29.866667-21.333333 38.4l-298.666667 170.666667C396.8 725.333333 392.533333 725.333333 384 725.333333zM426.666667 413.866667l0 196.266667 170.666667-98.133333L426.666667 413.866667z" p-id="1934"></path></svg>